<svg width="18" height="24" fill="none" xmlns="http://www.w3.org/2000/svg"><path d="M11.527 15.151a8.038 8.038 0 00-2.074-.934c-.74-.23-1.51-.442-2.315-.639a45.895 45.895 0 01-2.267-.639 7.552 7.552 0 01-2.025-1.082C1.527 10.842.756 9.597.53 8.121.338 6.614.659 5.106 1.495 3.6A5.617 5.617 0 013.28 1.68 8.282 8.282 0 015.69.501 9.907 9.907 0 018.441.01c.932-.033 1.816.016 2.652.147.547.099 1.126.246 1.737.443.61.164 1.173.393 1.688.688a5.435 5.435 0 011.447 1.13c.45.427.771.967.964 1.623.129.426.145.836.049 1.229a1.774 1.774 0 01-.483.983c-.225.262-.53.459-.916.59a2.27 2.27 0 01-1.158.098 5.954 5.954 0 01-1.35-.442c-.418-.197-.836-.41-1.254-.64a9.353 9.353 0 00-1.303-.589 3.667 3.667 0 00-1.35-.246c-.74-.033-1.35.098-1.833.393-.482.295-.82.656-1.013 1.082-.16.426-.144.885.049 1.376.225.492.675.918 1.35 1.279.611.327 1.286.59 2.026.786.74.197 1.463.394 2.17.59.74.197 1.447.426 2.122.688a6.304 6.304 0 011.881 1.082c1.061.885 1.705 1.917 1.93 3.097a6.446 6.446 0 01-.193 3.49c-.386 1.147-1.061 2.163-2.026 3.048a7.022 7.022 0 01-3.328 1.77c-.932.197-1.945.295-3.039.295-1.06 0-2.122-.115-3.183-.344a12.606 12.606 0 01-2.99-1.082 7.924 7.924 0 01-2.364-1.868A2.876 2.876 0 010 18.936c0-.688.129-1.278.386-1.77.29-.524.691-.884 1.206-1.08.514-.197 1.093-.083 1.736.343.514.36 1.125.721 1.833 1.082.707.328 1.415.59 2.122.786a7.561 7.561 0 002.026.295c.675 0 1.254-.147 1.736-.442.707-.459 1.077-.983 1.11-1.573.032-.623-.178-1.098-.628-1.426z" fill="#fff"/></svg>