<svg width="75" height="12" fill="none" xmlns="http://www.w3.org/2000/svg"><path d="M3.585 8.04a2.524 2.524 0 00-.645-.285c-.23-.07-.47-.135-.72-.195-.24-.06-.475-.125-.705-.195-.23-.08-.44-.19-.63-.33-.41-.31-.65-.69-.72-1.14-.06-.46.04-.92.3-1.38.14-.24.325-.435.555-.585.23-.16.48-.28.75-.36.28-.09.565-.14.855-.15.29-.01.565.005.825.045.17.03.35.075.54.135.19.05.365.12.525.21.17.09.32.205.45.345.14.13.24.295.3.495.04.13.045.255.015.375-.02.12-.07.22-.15.3a.636.636 0 01-.285.18c-.11.04-.23.05-.36.03-.15-.03-.29-.075-.42-.135-.13-.06-.26-.125-.39-.195s-.265-.13-.405-.18a1.16 1.16 0 00-.42-.075c-.23-.01-.42.03-.57.12-.15.09-.255.2-.315.33-.05.13-.045.27.015.42.07.15.21.28.42.39.19.1.4.18.63.24.23.06.455.12.675.18.23.06.45.13.66.21.22.08.415.19.585.33.33.27.53.585.6.945.08.36.06.715-.06 1.065s-.33.66-.63.93c-.29.27-.635.45-1.035.54-.29.06-.605.09-.945.09-.33 0-.66-.035-.99-.105a3.97 3.97 0 01-.93-.33c-.29-.15-.535-.34-.735-.57A.868.868 0 010 9.195c0-.21.04-.39.12-.54.09-.16.215-.27.375-.33s.34-.025.54.105c.16.11.35.22.57.33.22.1.44.18.66.24.22.06.43.09.63.09.21 0 .39-.045.54-.135.22-.14.335-.3.345-.48.01-.19-.055-.335-.195-.435zm8.987-3.975c.08.19.085.4.015.63-.06.23-.175.38-.345.45-.09.04-.21.075-.36.105-.15.02-.315.04-.495.06a8.773 8.773 0 01-.945.06 447.447 447.447 0 01.06 1.845c.01.3.015.59.015.87 0 .27-.005.515-.015.735v.525c0 .19-.015.375-.045.555-.02.18-.055.34-.105.48-.05.13-.125.215-.225.255-.31.13-.595.165-.855.105-.25-.05-.43-.155-.54-.315-.08-.13-.14-.28-.18-.45-.04-.18-.07-.36-.09-.54-.01-.19-.015-.37-.015-.54.01-.18.015-.335.015-.465.01-.42.015-.895.015-1.425.01-.54.015-1.08.015-1.62h-.69c-.18-.01-.365-.025-.555-.045-.18-.03-.35-.065-.51-.105-.16-.05-.275-.12-.345-.21a.927.927 0 01-.21-.42.975.975 0 01.03-.42c.05-.14.125-.26.225-.36.1-.11.215-.18.345-.21.18-.05.435-.075.765-.075.33-.01.64-.01.93 0a2.87 2.87 0 01-.015-.285c0-.1-.005-.195-.015-.285a5.581 5.581 0 01.015-1.005c.03-.19.075-.365.135-.525.06-.17.145-.3.255-.39a.81.81 0 01.45-.195c.16-.02.305 0 .435.06.14.06.255.15.345.27.1.11.17.235.21.375a4.116 4.116 0 01.105.945c.01.18.015.36.015.54v.495h.15c.15 0 .325-.005.525-.015.2-.01.395-.005.585.015.2.02.38.07.54.15.16.07.28.195.36.375zm2.381.3c.3-.15.615-.255.945-.315.33-.07.655-.085.975-.045.33.03.645.115.945.255a2.842 2.842 0 011.44 1.425c.14.31.24.655.3 1.035.04.26.105.5.195.72.09.22.185.44.285.66.11.22.21.44.3.66.1.22.18.45.24.69.05.23.03.455-.06.675-.08.21-.25.34-.51.39a.802.802 0 01-.435-.03c-.13-.06-.25-.14-.36-.24-.11-.11-.21-.225-.3-.345-.08-.13-.155-.25-.225-.36-.23.3-.48.535-.75.705-.27.16-.595.265-.975.315-.32.04-.625.05-.915.03-.29-.02-.6-.075-.93-.165-.43-.11-.785-.3-1.065-.57-.27-.28-.48-.6-.63-.96a3.563 3.563 0 01-.225-1.185c-.01-.42.04-.835.15-1.245.14-.54.35-.98.63-1.32.28-.34.605-.6.975-.78zm.375 1.755c-.14.14-.25.305-.33.495-.08.19-.13.39-.15.6-.01.21.01.42.06.63.05.21.13.395.24.555.1.14.27.26.51.36.24.09.49.145.75.165.3.02.56-.06.78-.24.23-.18.4-.405.51-.675.12-.28.175-.575.165-.885-.01-.32-.095-.61-.255-.87-.12-.19-.28-.33-.48-.42a1.418 1.418 0 00-.615-.135c-.22-.01-.44.025-.66.105-.21.07-.385.175-.525.315zm12.078-1.215c.08.14.12.29.12.45a.79.79 0 01-.105.45.749.749 0 01-.39.375.894.894 0 01-.54.015.65.65 0 01-.24-.105c-.07-.05-.145-.1-.225-.15a1.247 1.247 0 00-.255-.165c-.09-.05-.21-.085-.36-.105-.15-.02-.315-.02-.495 0-.17.02-.325.06-.465.12-.22.11-.395.28-.525.51-.13.22-.215.46-.255.72-.04.25-.035.505.015.765.06.26.17.48.33.66.12.14.275.255.465.345.2.09.39.145.57.165.17.02.34.02.51 0 .17-.03.335-.07.495-.12.12-.05.255-.115.405-.195.15-.09.295-.145.435-.165.18 0 .32.05.42.15.1.09.17.205.21.345.04.13.045.27.015.42a.761.761 0 01-.165.39c-.12.15-.29.295-.51.435-.22.13-.43.225-.63.285-.24.08-.51.125-.81.135-.29.01-.565 0-.825-.03a6.213 6.213 0 01-.375-.075 3.092 3.092 0 01-1.485-.78c-.29-.3-.515-.635-.675-1.005a3.584 3.584 0 01-.255-1.185c-.02-.42.03-.835.15-1.245.11-.39.245-.72.405-.99.17-.27.365-.49.585-.66.23-.18.485-.32.765-.42.28-.11.59-.205.93-.285.35-.07.72-.07 1.11 0 .39.07.74.2 1.05.39.24.13.44.315.6.555zM31.74 7.23c.22.23.38.4.48.51.11.1.185.175.225.225.05.05.085.08.105.09.02.01.055.04.105.09l.24.24c.11.1.275.265.495.495.18.18.325.39.435.63.12.23.11.48-.03.75-.08.14-.17.24-.27.3a.61.61 0 01-.33.06c-.11-.01-.23-.045-.36-.105-.12-.06-.24-.135-.36-.225-.23-.17-.45-.365-.66-.585-.21-.23-.38-.405-.51-.525-.09-.09-.145-.15-.165-.18a.235.235 0 00-.06-.045l-.06-.06c-.07-.07-.145-.14-.225-.21-.08-.07-.16-.145-.24-.225v.585c0 .11.005.19.015.24 0 .1-.005.175-.015.225-.03.11-.045.215-.045.315l-.03.15c-.01.04-.025.085-.045.135a.174.174 0 01-.03.045v.045a.174.174 0 01-.03.045c0 .01-.005.025-.015.045a.89.89 0 01-.24.285c-.19.11-.425.14-.705.09a.657.657 0 01-.345-.165.432.432 0 01-.18-.255l-.06-.15a.796.796 0 00-.045-.165.368.368 0 01-.03-.135V.96c0-.06.005-.12.015-.18l.03-.165c.02-.06.04-.115.06-.165.04-.1.09-.18.15-.24.05-.05.1-.085.15-.105a2.2 2.2 0 01.165-.075.843.843 0 01.165-.015c.07-.01.135-.015.195-.015.14 0 .28.04.42.12.13.09.225.205.285.345.08.19.12.375.12.555.01.1.02.255.03.465.01.2.015.35.015.45v.06c.01.33.015.645.015.945v.975c-.01.35-.015.685-.015 1.005v1.095c.08-.08.16-.155.24-.225.08-.07.155-.145.225-.225.04-.03.08-.065.12-.105l.165-.165c.13-.13.3-.305.51-.525.21-.23.43-.43.66-.6.25-.18.49-.29.72-.33.24-.04.44.08.6.36.14.27.15.525.03.765a2.71 2.71 0 01-.435.645c-.22.23-.385.4-.495.51-.11.1-.19.175-.24.225a.75.75 0 01-.105.075.549.549 0 00-.105.09l-.225.225c-.1.1-.26.265-.48.495zm5.217 3.45c0 .26-.095.48-.285.66-.18.19-.4.285-.66.285a.923.923 0 01-.675-.285.898.898 0 01-.27-.66.948.948 0 01.945-.96c.26 0 .48.095.66.285.19.19.285.415.285.675zm6.738-5.775c.08.14.12.29.12.45a.79.79 0 01-.105.45.749.749 0 01-.39.375.894.894 0 01-.54.015.65.65 0 01-.24-.105c-.07-.05-.145-.1-.225-.15a1.247 1.247 0 00-.255-.165c-.09-.05-.21-.085-.36-.105-.15-.02-.315-.02-.495 0-.17.02-.325.06-.465.12-.22.11-.395.28-.525.51-.13.22-.215.46-.255.72-.04.25-.035.505.015.765.06.26.17.48.33.66.12.14.275.255.465.345.2.09.39.145.57.165.17.02.34.02.51 0 .17-.03.335-.07.495-.12.12-.05.255-.115.405-.195.15-.09.295-.145.435-.165.18 0 .32.05.42.15.1.09.17.205.21.345.04.13.045.27.015.42a.761.761 0 01-.165.39c-.12.15-.29.295-.51.435-.22.13-.43.225-.63.285-.24.08-.51.125-.81.135-.29.01-.565 0-.825-.03a6.213 6.213 0 01-.375-.075 3.092 3.092 0 01-1.485-.78c-.29-.3-.515-.635-.675-1.005A3.584 3.584 0 0138.1 7.56c-.02-.42.03-.835.15-1.245.11-.39.245-.72.405-.99.17-.27.365-.49.585-.66.23-.18.485-.32.765-.42.28-.11.59-.205.93-.285.35-.07.72-.07 1.11 0 .39.07.74.2 1.05.39.24.13.44.315.6.555zM46.979 3.9a4.2 4.2 0 011.035-.345 3.48 3.48 0 012.1.24c.34.15.65.36.93.63.23.23.43.51.6.84.17.32.295.635.375.945.17.55.195 1.105.075 1.665-.12.56-.325 1.08-.615 1.56-.14.22-.315.42-.525.6-.2.17-.415.31-.645.42-.3.14-.625.235-.975.285-.35.06-.69.075-1.02.045-.6-.03-1.13-.18-1.59-.45A3.394 3.394 0 0145.629 9.3c-.27-.42-.45-.895-.54-1.425-.08-.54-.045-1.09.105-1.65.16-.6.39-1.085.69-1.455.31-.38.675-.67 1.095-.87zm.45 2.01c-.15.14-.265.315-.345.525-.08.21-.13.43-.15.66-.02.22-.005.445.045.675.06.22.15.42.27.6.1.15.28.275.54.375.26.1.53.16.81.18.32.02.6-.065.84-.255.24-.2.42-.445.54-.735.13-.29.19-.605.18-.945-.01-.34-.1-.65-.27-.93-.12-.2-.29-.345-.51-.435a1.55 1.55 0 00-.675-.15c-.23-.01-.46.025-.69.105-.23.07-.425.18-.585.33zM58.044.195A.935.935 0 0158.54.18c.15.03.275.095.375.195.11.1.19.225.24.375.06.15.09.315.09.495.01.5.01.89 0 1.17v6.69c0 .36-.02.655-.06.885-.03.22-.09.385-.18.495a.617.617 0 01-.375.225c-.17.05-.395.075-.675.075h-1.02c-1.08 0-1.935-.255-2.565-.765-.62-.51-.95-1.32-.99-2.43-.02-.48.04-.92.18-1.32.14-.4.345-.74.615-1.02.28-.29.62-.51 1.02-.66.41-.16.875-.235 1.395-.225h.825v-3.15c0-.16.015-.305.045-.435.03-.14.09-.26.18-.36.09-.1.225-.175.405-.225zm-2.61 8.325c.21.29.59.45 1.14.48.11.01.215.015.315.015.1-.01.19-.025.27-.045.09-.01.175-.025.255-.045V6.15a7.19 7.19 0 00-.96-.105c-.28-.02-.56.08-.84.3a1.16 1.16 0 00-.345.465c-.08.18-.125.375-.135.585-.01.2.01.4.06.6.05.2.13.375.24.525zm10.21.105c.12-.03.24-.05.36-.06.13-.01.245.005.345.045.11.04.2.11.27.21.07.09.105.22.105.39a.71.71 0 01-.09.345c-.06.11-.135.21-.225.3s-.19.17-.3.24a4.41 4.41 0 01-1.32.45c-.37.07-.755.095-1.155.075a4.87 4.87 0 01-1.56-.315c-.49-.2-.875-.525-1.155-.975-.26-.44-.415-.93-.465-1.47-.05-.54-.025-1.05.075-1.53.11-.58.295-1.05.555-1.41.27-.37.59-.665.96-.885.45-.26.955-.395 1.515-.405.56-.01 1.095.1 1.605.33.34.15.645.355.915.615.27.25.475.555.615.915.04.09.07.2.09.33a2.944 2.944 0 01.06.84c-.01.14-.035.265-.075.375-.06.18-.135.32-.225.42a.83.83 0 01-.345.225c-.14.05-.31.085-.51.105-.19.01-.42.02-.69.03-.24.01-.465.015-.675.015h-.645c-.22-.01-.45-.015-.69-.015-.23-.01-.49-.02-.78-.03-.03.2-.005.375.075.525.09.14.21.26.36.36.15.09.32.16.51.21.19.05.375.08.555.09.34.02.665-.005.975-.075.31-.08.63-.17.96-.27zM65 5.715c-.19-.22-.39-.38-.6-.48-.16-.07-.33-.1-.51-.09-.17 0-.335.025-.495.075-.29.07-.535.22-.735.45-.02.02-.055.07-.105.15-.05.07-.1.145-.15.225-.04.08-.07.155-.09.225-.02.07-.01.105.03.105h2.94a1.04 1.04 0 00-.075-.345c-.04-.1-.11-.205-.21-.315zm3.072-.345v-.405a7.693 7.693 0 01.06-.96c.03-.16.07-.3.12-.42.08-.18.205-.3.375-.36.17-.07.355-.1.555-.09.21 0 .375.035.495.105.12.07.21.165.27.285.06.11.095.24.105.39.02.14.03.29.03.45.09-.16.21-.29.36-.39.16-.1.32-.18.48-.24.16-.06.305-.1.435-.12.13-.03.205-.045.225-.045.25-.02.475-.025.675-.015.21.01.44.055.69.135.16.06.325.145.495.255.17.1.32.22.45.36.13.14.215.295.255.465.05.16.03.33-.06.51-.14.25-.295.375-.465.375-.17-.01-.355-.04-.555-.09-.11-.02-.24-.065-.39-.135-.15-.07-.28-.115-.39-.135-.34-.05-.64-.025-.9.075s-.485.22-.675.36c-.22.17-.41.365-.57.585v2.16c0 .27-.005.55-.015.84 0 .29-.04.555-.12.795-.07.23-.195.42-.375.57-.17.14-.42.2-.75.18a.678.678 0 01-.48-.255 1.12 1.12 0 01-.255-.495c-.02-.15-.035-.33-.045-.54l-.03-.66V5.37z" fill="#000"/></svg>